<svg width="24" height="24" viewBox="0 0 24 24" fill="none" xmlns="http://www.w3.org/2000/svg">
<path d="M19.852 15.4537C18.8735 16.2478 17.7962 16.906 16.6279 17.3697L18.7521 21.0489L20.8594 21.9489C21.2426 22.1126 21.6755 21.8626 21.7255 21.4489L21.9997 19.1736L19.852 15.4537V15.4537ZM21.5118 11.76C21.7016 11.4604 21.5856 11.0573 21.2755 10.8854L20.179 10.2772C19.8868 10.1151 19.5302 10.2202 19.3485 10.5006C17.7427 12.9823 14.9787 14.4998 12.0002 14.4998C11.0655 14.4998 10.1553 14.3338 9.28893 14.0494L11.9201 9.49168C11.9475 9.49246 11.9725 9.49988 11.9998 9.49988C12.0272 9.49988 12.0526 9.49246 12.0795 9.49168L14.0752 12.9487C15.2951 12.5987 16.4017 11.9428 17.3021 11.0378L15.2791 7.53351C15.5701 7.00109 15.7502 6.39954 15.7502 5.74994C15.7502 3.67888 14.0713 2 12.0002 2C9.92915 2 8.25027 3.67888 8.25027 5.74994C8.25027 6.39954 8.43035 7.00109 8.72097 7.53351L6.05304 12.1549C5.56281 11.7014 5.11711 11.1944 4.73743 10.6315C4.55033 10.3542 4.19174 10.2557 3.90229 10.4233L2.81832 11.051C2.51169 11.2284 2.40309 11.6331 2.59801 11.9288C3.20621 12.8522 3.95307 13.6557 4.7847 14.3514L2.00037 19.174L2.27458 21.4493C2.32458 21.863 2.75739 22.113 3.14058 21.9493L5.24797 21.0493L8.01355 16.2592C9.27096 16.7373 10.6182 16.9998 12.0002 16.9998C15.8693 16.9998 19.4563 15.0072 21.5118 11.76ZM12.0002 4.49996C12.6904 4.49996 13.2502 5.05972 13.2502 5.74994C13.2502 6.44017 12.6904 6.99992 12.0002 6.99992C11.31 6.99992 10.7502 6.44017 10.7502 5.74994C10.7502 5.05972 11.31 4.49996 12.0002 4.49996Z" fill="black"/>
</svg>
