<svg width="24" height="25" viewBox="0 0 24 25" fill="none" xmlns="http://www.w3.org/2000/svg">
<path fill-rule="evenodd" clip-rule="evenodd" d="M22.56 17.05L14.89 4.33C14.2597 3.344 13.1702 2.74738 12 2.74738C10.8297 2.74738 9.74026 3.344 9.10998 4.33L1.43998 17.05C0.888525 17.9692 0.869464 19.1129 1.38998 20.05C1.99195 21.1051 3.11521 21.7546 4.32998 21.75H19.67C20.8765 21.7629 21.9978 21.1297 22.61 20.09C23.1461 19.1426 23.1269 17.9792 22.56 17.05ZM12 17.75C11.4477 17.75 11 17.3023 11 16.75C11 16.1977 11.4477 15.75 12 15.75C12.5523 15.75 13 16.1977 13 16.75C13 17.3023 12.5523 17.75 12 17.75ZM12 14.75C12.5523 14.75 13 14.3023 13 13.75V9.75C13 9.19771 12.5523 8.75 12 8.75C11.4477 8.75 11 9.19771 11 9.75V13.75C11 14.3023 11.4477 14.75 12 14.75Z" fill="#B72136"/>
</svg>
