<svg width="60" height="60" viewBox="0 0 60 60" fill="none" xmlns="http://www.w3.org/2000/svg">
<path d="M30.0001 5C33.2831 5 36.5343 5.64695 39.5674 6.90332C42.6004 8.15968 45.3564 10.0009 47.6778 12.3223C49.9992 14.6436 51.8404 17.3996 53.0967 20.4326C54.3531 23.4658 55.0001 26.717 55.0001 30C55.0001 34.9445 53.5342 39.7784 50.7872 43.8896C48.0402 48.0007 44.1354 51.2045 39.5674 53.0967C34.9994 54.9888 29.9726 55.4841 25.1231 54.5195C20.2736 53.5549 15.8186 51.174 12.3223 47.6777C8.82602 44.1814 6.44516 39.7265 5.48053 34.877C4.51597 30.0275 5.01123 25.0007 6.90338 20.4326C8.79557 15.8647 11.9993 11.9599 16.1104 9.21289C20.2216 6.46586 25.0555 5 30.0001 5ZM37.6534 11.5225C33.999 10.0088 29.9781 9.61317 26.0987 10.3848C22.2191 11.1565 18.6545 13.0604 15.8575 15.8574C13.0604 18.6545 11.1565 22.219 10.3848 26.0986C9.61323 29.978 10.0089 33.999 11.5225 37.6533C13.0362 41.3078 15.5998 44.4313 18.8887 46.6289C22.1777 48.8265 26.0444 50 30.0001 50C35.3044 50 40.3919 47.8933 44.1426 44.1426C47.8934 40.3919 50.0001 35.3043 50.0001 30C50.0001 26.0445 48.8275 22.1776 46.6299 18.8887C44.4323 15.5997 41.3079 13.0362 37.6534 11.5225ZM30.0001 17.5C30.6631 17.5 31.2988 17.7636 31.7676 18.2324C32.2365 18.7013 32.5001 19.337 32.5001 20V27.5H40.0001C40.6631 27.5 41.2988 27.7636 41.7676 28.2324C42.2365 28.7013 42.5001 29.337 42.5001 30C42.5001 30.663 42.2365 31.2987 41.7676 31.7676C41.2988 32.2364 40.6631 32.5 40.0001 32.5H30.0001C29.337 32.5 28.7013 32.2364 28.2325 31.7676C27.7636 31.2987 27.5001 30.663 27.5001 30V20C27.5001 19.337 27.7636 18.7013 28.2325 18.2324C28.7013 17.7636 29.337 17.5 30.0001 17.5Z" fill="#C3AF00"/>
</svg>
