<svg width="60" height="60" viewBox="0 0 60 60" fill="none" xmlns="http://www.w3.org/2000/svg">
<path fill-rule="evenodd" clip-rule="evenodd" d="M41.65 11.5L48.5 18.35C50.415 20.1744 50.4932 23.2041 48.675 25.125L26.175 47.625C25.3601 48.4331 24.292 48.9362 23.15 49.05L12.725 50H12.5C11.8355 50.0038 11.1968 49.743 10.725 49.275C10.1976 48.7495 9.93184 48.0164 10 47.275L11.075 36.85C11.1888 35.708 11.6919 34.6399 12.5 33.825L35 11.325C36.9396 9.68637 39.7993 9.76162 41.65 11.5ZM33.3 20L40 26.7L45 21.825L38.175 15L33.3 20Z" fill="#409EFF"/>
</svg>
