<svg width="24" height="25" viewBox="0 0 24 25" fill="none" xmlns="http://www.w3.org/2000/svg">
<path fill-rule="evenodd" clip-rule="evenodd" d="M16.6601 4.85001L19.4001 7.59001C20.166 8.31978 20.1973 9.53167 19.4701 10.3L10.4701 19.3C10.1441 19.6232 9.71685 19.8245 9.26006 19.87L5.09006 20.25H5.00006C4.73425 20.2515 4.47878 20.1472 4.29006 19.96C4.07909 19.7498 3.97278 19.4566 4.00006 19.16L4.43006 14.99C4.47556 14.5332 4.67682 14.106 5.00006 13.78L14.0001 4.78001C14.7759 4.12456 15.9198 4.15467 16.6601 4.85001ZM13.3201 8.25001L16.0001 10.93L18.0001 8.98001L15.2701 6.25001L13.3201 8.25001Z" fill="#00A15D"/>
</svg>
