<svg width="24" height="24" viewBox="0 0 24 24" fill="none" xmlns="http://www.w3.org/2000/svg">
<path fill-rule="evenodd" clip-rule="evenodd" d="M17.1002 20.89C17.2425 20.9629 17.4002 21.0007 17.5602 21C17.781 21.0102 17.9991 20.9469 18.1802 20.82C18.4969 20.5931 18.653 20.2028 18.5802 19.82L17.5802 14.19L21.7002 10.19C21.9621 9.92862 22.0583 9.54393 21.9502 9.19002C21.8319 8.82744 21.5177 8.56369 21.1402 8.51002L15.4402 7.68002L12.9002 2.56002C12.7331 2.21503 12.3835 1.99591 12.0002 1.99591C11.6168 1.99591 11.2672 2.21503 11.1002 2.56002L8.59015 7.69002L2.89015 8.52002C2.51258 8.57369 2.1984 8.83744 2.08015 9.20002C1.97204 9.55393 2.06821 9.93862 2.33015 10.2L6.45015 14.2L5.45015 19.83C5.38339 20.2059 5.53642 20.5869 5.84458 20.8122C6.15275 21.0375 6.56229 21.0677 6.90015 20.89L12.0002 18.22L17.1002 20.89ZM12.4602 16.21C12.319 16.1339 12.1605 16.096 12.0002 16.1C11.833 16.0668 11.6599 16.0806 11.5002 16.14L7.73015 18.14L8.45015 13.98C8.50688 13.6536 8.39827 13.3203 8.16015 13.09L5.16015 10.16L9.36015 9.54002C9.68332 9.49327 9.96331 9.29168 10.1102 9.00002L12.0002 5.25002L13.8902 9.00002C14.0241 9.28914 14.2878 9.49713 14.6002 9.56002L18.8002 10.18L15.8002 13.11C15.562 13.3403 15.4534 13.6736 15.5102 14L16.2302 18.21L12.4602 16.21Z" fill="#212B36"/>
</svg>
