<svg width="24" height="25" viewBox="0 0 24 25" fill="none" xmlns="http://www.w3.org/2000/svg">
<path d="M9 11.25C11.2091 11.25 13 9.45914 13 7.25C13 5.04086 11.2091 3.25 9 3.25C6.79086 3.25 5 5.04086 5 7.25C5 9.45914 6.79086 11.25 9 11.25Z" fill="#00A15D"/>
<path d="M17 13.25C18.6569 13.25 20 11.9069 20 10.25C20 8.59315 18.6569 7.25 17 7.25C15.3431 7.25 14 8.59315 14 10.25C14 11.9069 15.3431 13.25 17 13.25Z" fill="#00A15D"/>
<path d="M21 20.25C21.5523 20.25 22 19.8023 22 19.25C21.9984 17.3433 20.9125 15.6035 19.2003 14.7645C17.4882 13.9254 15.4479 14.1331 13.94 15.3C11.9371 13.3049 8.93071 12.7105 6.31923 13.7931C3.70774 14.8758 2.00382 17.423 2 20.25C2 20.8023 2.44772 21.25 3 21.25H15C15.5523 21.25 16 20.8023 16 20.25" fill="#00A15D"/>
</svg>
