<svg width="60" height="60" viewBox="0 0 60 60" fill="none" xmlns="http://www.w3.org/2000/svg">
<path d="M22.5 27.5C28.0228 27.5 32.5 23.0228 32.5 17.5C32.5 11.9772 28.0228 7.5 22.5 7.5C16.9772 7.5 12.5 11.9772 12.5 17.5C12.5 23.0228 16.9772 27.5 22.5 27.5Z" fill="#B7731E"/>
<path d="M42.5 32.5C46.6421 32.5 50 29.1421 50 25C50 20.8579 46.6421 17.5 42.5 17.5C38.3579 17.5 35 20.8579 35 25C35 29.1421 38.3579 32.5 42.5 32.5Z" fill="#B7731E"/>
<path d="M52.5 50C53.8807 50 55 48.8807 55 47.5C54.9959 42.7333 52.2812 38.3839 48.0009 36.2862C43.7205 34.1885 38.6198 34.7078 34.85 37.625C29.8427 32.6374 22.3268 31.1512 15.7981 33.8579C9.26936 36.5645 5.00956 42.9325 5 50C5 51.3807 6.11929 52.5 7.5 52.5H37.5C38.8807 52.5 40 51.3807 40 50" fill="#B7731E"/>
</svg>
