<svg width="240" height="180" viewBox="0 0 240 180" fill="none" xmlns="http://www.w3.org/2000/svg">
<g opacity="0.2">
<path fill-rule="evenodd" clip-rule="evenodd" d="M0 99.3904C0 120.119 7.47269 139.008 19.7695 153.283C33.8767 169.666 54.3336 179.965 77.1363 180C87.102 180.015 96.631 178.057 105.384 174.482C109.91 172.633 114.975 172.845 119.358 175.036C124.5 177.602 130.257 179.041 136.337 179.041C138.848 179.041 141.307 178.794 143.686 178.324C150.477 176.989 156.656 173.829 161.731 169.354C164.92 166.54 169.005 165.126 173.18 165.131H173.251C187.045 165.131 199.859 160.765 210.497 153.283C220.008 146.603 227.774 137.435 232.949 126.671C237.46 117.29 240 106.694 240 95.4789C240 57.0136 210.113 25.8267 173.251 25.8267C169.493 25.8267 165.811 26.1579 162.219 26.7759C152.709 10.71 135.678 0 116.249 0C108.047 0 100.27 1.90884 93.3093 5.33061C86.6895 8.57417 80.8038 13.1831 75.9892 18.8C59.6407 19.072 44.524 24.645 32.1515 33.9457C12.6757 48.5776 0 72.4412 0 99.3904Z" fill="url(#paint0_linear_12590_20380)"/>
</g>
<g clip-path="url(#clip0_12590_20380)">
<g opacity="0.24">
<g opacity="0.24">
<g opacity="0.24">
<path opacity="0.24" fill-rule="evenodd" clip-rule="evenodd" d="M0 99.3904C0 120.119 7.47269 139.008 19.7695 153.283C33.8767 169.666 54.3336 179.965 77.1363 180C87.102 180.015 96.631 178.057 105.384 174.482C109.91 172.633 114.975 172.845 119.358 175.036C124.5 177.602 130.257 179.041 136.337 179.041C138.848 179.041 141.307 178.794 143.686 178.324C150.477 176.989 156.656 173.829 161.731 169.354C164.92 166.54 169.005 165.126 173.18 165.131H173.251C187.045 165.131 199.859 160.765 210.497 153.283C220.008 146.603 227.774 137.435 232.949 126.671C237.46 117.29 240 106.694 240 95.4789C240 57.0136 210.113 25.8267 173.251 25.8267C169.493 25.8267 165.811 26.1579 162.219 26.7759C152.709 10.71 135.678 0 116.249 0C108.047 0 100.27 1.90884 93.3093 5.33061C86.6895 8.57417 80.8038 13.1831 75.9892 18.8C59.6407 19.072 44.524 24.645 32.1515 33.9457C12.6757 48.5776 0 72.4412 0 99.3904Z" fill="url(#paint1_linear_12590_20380)"/>
</g>
</g>
</g>
<path opacity="0.545118" d="M135.964 37.8189C134.704 37.8189 133.444 37.3402 132.485 36.3826C130.567 34.4673 130.567 31.3511 132.485 29.4362C134.403 27.5216 137.525 27.5209 139.443 29.4362C141.361 31.3515 141.361 34.4676 139.443 36.3826C138.484 37.3402 137.224 37.8189 135.964 37.8189ZM135.964 31.3857C135.573 31.3857 135.182 31.5341 134.884 31.8315C134.289 32.4257 134.289 33.3928 134.884 33.9873C135.48 34.5815 136.448 34.5818 137.044 33.9873C137.639 33.3931 137.639 32.426 137.044 31.8315C136.746 31.5344 136.355 31.3857 135.964 31.3857Z" fill="#C4CDD5"/>
<path opacity="0.545118" d="M97.2867 152.5C96.0269 152.5 94.7667 152.021 93.8078 151.064C91.8894 149.148 91.8894 146.032 93.8078 144.117C95.7256 142.202 98.8479 142.202 100.766 144.117C102.684 146.033 102.684 149.149 100.766 151.064C99.8068 152.021 98.5466 152.5 97.2867 152.5ZM97.2867 146.067C96.8959 146.067 96.5046 146.215 96.2067 146.513C95.6116 147.107 95.6116 148.074 96.2067 148.668C96.8026 149.263 97.7706 149.263 98.3664 148.668C98.9616 148.074 98.9616 147.107 98.3664 146.513C98.0688 146.216 97.6776 146.067 97.2867 146.067Z" fill="#C4CDD5"/>
<path d="M183.304 129.366C182.87 129.366 182.435 129.201 182.104 128.87L180.08 126.85L178.056 128.87C177.394 129.531 176.319 129.531 175.657 128.87C174.995 128.208 174.995 127.136 175.657 126.475L178.881 123.257C179.543 122.595 180.618 122.595 181.28 123.257L184.503 126.475C185.166 127.136 185.166 128.209 184.503 128.87C184.172 129.2 183.738 129.366 183.304 129.366Z" fill="#DFE3E8"/>
<path d="M63.6433 122.913C63.2093 122.913 62.7746 122.747 62.4438 122.417L60.4198 120.397L58.3959 122.417C57.7339 123.078 56.659 123.078 55.997 122.417C55.3343 121.755 55.3343 120.683 55.997 120.022L59.2204 116.803C59.8824 116.142 60.9573 116.142 61.6193 116.803L64.8427 120.022C65.5054 120.683 65.5054 121.756 64.8427 122.417C64.5115 122.747 64.0772 122.913 63.6433 122.913Z" fill="#C4CDD5"/>
<g filter="url(#filter0_d_12590_20380)">
<mask id="mask0_12590_20380" style="mask-type:alpha" maskUnits="userSpaceOnUse" x="71" y="49" width="100" height="82">
<path d="M163.312 49.8831H77.924C74.1064 49.8831 71.0116 52.9779 71.0116 56.7956V123.593C71.0116 127.41 74.1064 130.505 77.924 130.505H163.312C167.13 130.505 170.225 127.41 170.225 123.593V56.7956C170.225 52.9779 167.13 49.8831 163.312 49.8831Z" fill="white"/>
</mask>
<g mask="url(#mask0_12590_20380)">
<path d="M163.312 49.8831H77.924C74.1064 49.8831 71.0116 52.9779 71.0116 56.7956V123.593C71.0116 127.41 74.1064 130.505 77.924 130.505H163.312C167.13 130.505 170.225 127.41 170.225 123.593V56.7956C170.225 52.9779 167.13 49.8831 163.312 49.8831Z" fill="#DFE3E8" stroke="#919EAB" stroke-opacity="0.48" stroke-width="1.72811"/>
<path opacity="0.32" d="M167.318 49.8831C168.946 49.8831 170.225 50.8965 170.225 52.1866V72.918H71.0116V52.1866C71.0116 50.8965 72.2903 49.8831 73.9182 49.8831H167.318ZM86.0089 58.5212C84.3936 58.5212 83.1248 59.7879 83.1248 61.4006C83.1248 63.0128 84.3936 64.2799 86.0089 64.2799C87.6242 64.2799 88.893 63.0128 88.893 61.4006C88.893 59.7879 87.6242 58.5212 86.0089 58.5212ZM97.5453 58.5212C95.93 58.5212 94.6612 59.7879 94.6612 61.4006C94.6612 63.0128 95.93 64.2799 97.5453 64.2799C99.1606 64.2799 100.429 63.0128 100.429 61.4006C100.429 59.7879 99.1606 58.5212 97.5453 58.5212ZM109.082 58.5212C107.466 58.5212 106.198 59.7879 106.198 61.4006C106.198 63.0128 107.466 64.2799 109.082 64.2799C110.697 64.2799 111.966 63.0128 111.966 61.4006C111.966 59.7879 110.697 58.5212 109.082 58.5212Z" fill="#919EAB"/>
<path d="M155.227 80.9802H126.386C124.792 80.9802 123.502 82.2681 123.502 83.8596V118.412C123.502 120.003 124.792 121.291 126.386 121.291H155.227C156.821 121.291 158.111 120.003 158.111 118.412V83.8596C158.111 82.2681 156.821 80.9802 155.227 80.9802Z" fill="#919EAB" fill-opacity="0.48" stroke="#919EAB" stroke-width="1.38249" stroke-dasharray="2.3 2.3"/>
<path opacity="0.72" d="M86.0089 86.7389H97.5453C99.1394 86.7389 100.429 85.4511 100.429 83.8596C100.429 82.2681 99.1394 80.9802 97.5453 80.9802H86.0089C84.4147 80.9802 83.1248 82.2681 83.1248 83.8596C83.1248 85.4511 84.4147 86.7389 86.0089 86.7389Z" stroke="#919EAB" stroke-width="1.38249" stroke-dasharray="2.3 2.3"/>
<path opacity="0.72" d="M114.85 92.4976H86.0089C84.4147 92.4976 83.1248 93.7855 83.1248 95.377C83.1248 96.9685 84.4147 98.2563 86.0089 98.2563H114.85C116.444 98.2563 117.734 96.9685 117.734 95.377C117.734 93.7855 116.444 92.4976 114.85 92.4976Z" stroke="#919EAB" stroke-width="1.38249" stroke-dasharray="2.3 2.3"/>
<path opacity="0.72" d="M114.85 104.015H86.0089C84.4147 104.015 83.1248 105.303 83.1248 106.894C83.1248 108.486 84.4147 109.774 86.0089 109.774H114.85C116.444 109.774 117.734 108.486 117.734 106.894C117.734 105.303 116.444 104.015 114.85 104.015Z" stroke="#919EAB" stroke-width="1.38249" stroke-dasharray="2.3 2.3"/>
<path opacity="0.72" d="M114.85 115.532H86.0089C84.4147 115.532 83.1248 116.82 83.1248 118.412C83.1248 120.003 84.4147 121.291 86.0089 121.291H114.85C116.444 121.291 117.734 120.003 117.734 118.412C117.734 116.82 116.444 115.532 114.85 115.532Z" stroke="#919EAB" stroke-width="1.38249" stroke-dasharray="2.3 2.3"/>
</g>
</g>
</g>
<defs>
<filter id="filter0_d_12590_20380" x="57.0116" y="35.8831" width="155.213" height="136.622" filterUnits="userSpaceOnUse" color-interpolation-filters="sRGB">
<feFlood flood-opacity="0" result="BackgroundImageFix"/>
<feColorMatrix in="SourceAlpha" type="matrix" values="0 0 0 0 0 0 0 0 0 0 0 0 0 0 0 0 0 0 127 0" result="hardAlpha"/>
<feOffset dx="14" dy="14"/>
<feGaussianBlur stdDeviation="14"/>
<feColorMatrix type="matrix" values="0 0 0 0 0.270588 0 0 0 0 0.309804 0 0 0 0 0.356863 0 0 0 0.24 0"/>
<feBlend mode="normal" in2="BackgroundImageFix" result="effect1_dropShadow_12590_20380"/>
<feBlend mode="normal" in="SourceGraphic" in2="effect1_dropShadow_12590_20380" result="shape"/>
</filter>
<linearGradient id="paint0_linear_12590_20380" x1="164.405" y1="212.016" x2="252.696" y2="13.024" gradientUnits="userSpaceOnUse">
<stop stop-color="#919EAB"/>
<stop offset="1" stop-color="#919EAB" stop-opacity="0.01"/>
</linearGradient>
<linearGradient id="paint1_linear_12590_20380" x1="46.7902" y1="129.28" x2="148.419" y2="0.438607" gradientUnits="userSpaceOnUse">
<stop stop-color="#00AB55"/>
<stop offset="1" stop-color="#00AB55" stop-opacity="0"/>
</linearGradient>
<clipPath id="clip0_12590_20380">
<rect width="240" height="180" fill="white"/>
</clipPath>
</defs>
</svg>
