<svg width="178" height="26" viewBox="0 0 178 26" fill="none" xmlns="http://www.w3.org/2000/svg">
<g clip-path="url(#clip0_12619_113)">
<path d="M39.9099 9.54H45.7099V25.9H39.9099V24.08C38.6799 25.63 37.0099 26.41 34.8999 26.41C33.7099 26.41 32.6099 26.19 31.6199 25.76C30.6199 25.32 29.7499 24.71 29.0099 23.93C28.2699 23.14 27.6899 22.22 27.2699 21.16C26.8499 20.1 26.6499 18.94 26.6499 17.68C26.6499 16.51 26.8499 15.4 27.2599 14.35C27.6599 13.3 28.2299 12.38 28.9499 11.59C29.6699 10.8 30.5299 10.18 31.5299 9.72C32.5299 9.26 33.6299 9.03 34.8499 9.03C36.8899 9.03 38.5799 9.74 39.9199 11.17V9.54H39.9099ZM32.6399 17.67C32.6399 18.2 32.7399 18.7 32.9299 19.15C33.1199 19.61 33.3799 20.01 33.7099 20.35C34.0399 20.69 34.4299 20.96 34.8899 21.15C35.3499 21.34 35.8399 21.44 36.3699 21.44C36.8999 21.44 37.3599 21.34 37.8199 21.15C38.2799 20.96 38.6699 20.69 38.9999 20.35C39.3299 20.01 39.5899 19.62 39.7999 19.17C39.9999 18.72 40.0999 18.25 40.0999 17.73C40.0999 17.21 39.9999 16.74 39.7999 16.28C39.5999 15.82 39.3299 15.42 38.9999 15.08C38.6699 14.74 38.2799 14.47 37.8199 14.28C37.3599 14.09 36.8799 13.99 36.3699 13.99C35.8599 13.99 35.3399 14.09 34.8899 14.28C34.4299 14.47 34.0399 14.74 33.7099 15.08C33.3799 15.42 33.1199 15.81 32.9299 16.24C32.7399 16.68 32.6399 17.15 32.6399 17.66V17.67Z" fill="white"/>
<path d="M49.8201 9.54H55.5901V11.61C56.3801 10.65 57.1701 10.01 57.9801 9.68C58.7901 9.35 59.7301 9.19 60.8201 9.19C61.9701 9.19 62.9501 9.38 63.7701 9.75C64.5901 10.12 65.2901 10.65 65.8601 11.33C66.3301 11.88 66.6501 12.5 66.8201 13.18C66.9901 13.86 67.0701 14.64 67.0701 15.51V25.91H61.3001V17.65C61.3001 16.84 61.2401 16.19 61.1201 15.69C61.0001 15.19 60.8001 14.79 60.5001 14.49C60.2501 14.23 59.9601 14.05 59.6401 13.95C59.3201 13.85 58.9801 13.79 58.6201 13.79C57.6401 13.79 56.8901 14.08 56.3701 14.67C55.8501 15.25 55.5901 16.09 55.5901 17.17V25.91H49.8201V9.55V9.54Z" fill="white"/>
<path d="M70.7202 3.26C70.7202 2.81 70.8002 2.39 70.9702 2C71.1402 1.61 71.3702 1.26 71.6702 0.960001C71.9702 0.660001 72.3102 0.43 72.7102 0.26C73.1002 0.0900002 73.5202 0 73.9702 0C74.4202 0 74.8402 0.0900002 75.2302 0.26C75.6202 0.43 75.9702 0.660001 76.2702 0.960001C76.5702 1.26 76.8002 1.6 76.9702 2C77.1402 2.39 77.2302 2.81 77.2302 3.26C77.2302 3.71 77.1402 4.13 76.9702 4.52C76.8002 4.91 76.5702 5.26 76.2702 5.56C75.9702 5.86 75.6302 6.09 75.2302 6.26C74.8402 6.43 74.4202 6.51 73.9702 6.51C73.5202 6.51 73.1002 6.43 72.7102 6.26C72.3202 6.09 71.9702 5.86 71.6702 5.56C71.3702 5.26 71.1402 4.92 70.9702 4.52C70.8002 4.13 70.7202 3.71 70.7202 3.26ZM76.8702 9.54V25.9H71.1002V9.54H76.8702Z" fill="white"/>
<path d="M0 1.87V25.91H6.25V11.21L17.79 25.91H24.01L6.25 1.87H0Z" fill="white"/>
<path d="M17.76 1.87L14.25 7.16H17.76V14.52L24.01 22.91V1.87H17.76Z" fill="white"/>
<path d="M83.3901 19.45H105.182V21.754H83.3901V19.45ZM88.0701 15.37H98.6061V17.386H88.0701V15.37ZM93.1581 18.802H95.9901V23.482C95.9901 24.106 95.9021 24.594 95.7261 24.946C95.5501 25.314 95.2141 25.594 94.7181 25.786C94.2221 25.962 93.6381 26.066 92.9661 26.098C92.2941 26.13 91.5021 26.146 90.5901 26.146C90.5261 25.762 90.4061 25.346 90.2301 24.898C90.0541 24.45 89.8701 24.058 89.6781 23.722C90.0781 23.738 90.4781 23.754 90.8781 23.77C91.2941 23.77 91.6621 23.77 91.9821 23.77C92.3181 23.77 92.5421 23.77 92.6541 23.77C92.8461 23.754 92.9741 23.722 93.0381 23.674C93.1181 23.626 93.1581 23.53 93.1581 23.386V18.802ZM97.8861 15.37H98.5581L99.1581 15.226L100.79 16.714C100.198 17.146 99.5501 17.578 98.8461 18.01C98.1421 18.426 97.4141 18.826 96.6621 19.21C95.9261 19.594 95.1821 19.946 94.4301 20.266C94.3021 20.026 94.1021 19.77 93.8301 19.498C93.5581 19.21 93.3341 18.978 93.1581 18.802C93.7181 18.546 94.3021 18.25 94.9101 17.914C95.5181 17.562 96.0861 17.21 96.6141 16.858C97.1421 16.49 97.5661 16.154 97.8861 15.85V15.37ZM83.8221 12.25H104.87V17.194H102.014V14.338H86.5341V17.194H83.8221V12.25ZM100.886 4.40201H103.622C103.574 5.39401 103.518 6.43401 103.454 7.52201C103.39 8.59401 103.318 9.63401 103.238 10.642C103.158 11.65 103.07 12.53 102.974 13.282H100.19C100.302 12.498 100.406 11.602 100.502 10.594C100.598 9.58601 100.678 8.54601 100.742 7.47401C100.806 6.38601 100.854 5.36201 100.886 4.40201ZM97.5501 4.40201H101.99V6.20201H97.5501V4.40201ZM90.0621 3.73001L91.2381 5.41001C90.4861 5.69801 89.6381 5.94601 88.6941 6.15401C87.7501 6.36201 86.9101 6.52201 86.1741 6.63401L85.1901 5.07401C85.6701 4.97801 86.2061 4.85801 86.7981 4.71401C87.3901 4.55401 87.9741 4.39401 88.5501 4.23401C89.1261 4.05801 89.6301 3.89001 90.0621 3.73001ZM86.5821 7.04201H91.0701V8.81801H86.5821V7.04201ZM86.6301 9.63401H91.1181V11.434H86.6301V9.63401ZM97.7181 7.04201H101.75V8.81801H97.7181V7.04201ZM97.5741 9.63401H101.606V11.434H97.5741V9.63401ZM95.2221 3.75401L97.0701 4.30601C96.5421 5.04201 95.8621 5.73801 95.0301 6.39401C94.1981 7.05001 93.3741 7.59401 92.5581 8.02601C92.3981 7.85001 92.1661 7.62601 91.8621 7.35401C91.5581 7.08201 91.2941 6.87401 91.0701 6.73001C91.8861 6.37801 92.6701 5.94601 93.4221 5.43401C94.1741 4.90601 94.7741 4.34601 95.2221 3.75401ZM91.5741 5.05001L92.8701 3.94601C93.3661 4.17001 93.8861 4.44201 94.4301 4.76201C94.9741 5.06601 95.4861 5.37801 95.9661 5.69801C96.4461 6.01801 96.8381 6.31401 97.1421 6.58601L95.7741 7.81001C95.4861 7.53801 95.1021 7.23401 94.6221 6.89801C94.1581 6.56201 93.6541 6.23401 93.1101 5.91401C92.5821 5.59401 92.0701 5.30601 91.5741 5.05001ZM95.2461 7.81001L97.1181 8.38601C96.5421 9.18601 95.8141 9.93801 94.9341 10.642C94.0541 11.33 93.1741 11.906 92.2941 12.37C92.1501 12.194 91.9261 11.954 91.6221 11.65C91.3181 11.346 91.0621 11.114 90.8541 10.954C91.7021 10.586 92.5261 10.13 93.3261 9.58601C94.1421 9.02601 94.7821 8.43401 95.2461 7.81001ZM91.4301 9.15401L92.7741 8.05001C93.2861 8.30601 93.8301 8.60201 94.4061 8.93801C94.9821 9.25801 95.5261 9.59401 96.0381 9.94601C96.5501 10.298 96.9661 10.634 97.2861 10.954L95.8701 12.202C95.5821 11.882 95.1821 11.546 94.6701 11.194C94.1741 10.826 93.6381 10.466 93.0621 10.114C92.5021 9.74601 91.9581 9.42601 91.4301 9.15401ZM85.1901 5.07401L87.9021 5.77001L88.3341 13.186H85.6701L85.1901 5.07401ZM110.39 16.066H126.542V26.218H123.542V18.226H113.246V26.218H110.39V16.066ZM111.83 19.618H124.334V21.778H111.83V19.618ZM111.998 23.17H124.454V25.354H111.998V23.17ZM116.774 13.858L119.87 14.29C119.566 14.914 119.246 15.506 118.91 16.066C118.574 16.626 118.278 17.098 118.022 17.482L115.67 16.978C115.878 16.514 116.086 15.994 116.294 15.418C116.518 14.842 116.678 14.322 116.774 13.858ZM107.798 4.69001H115.526V6.92201H107.798V4.69001ZM114.878 4.69001H117.494V12.658C117.494 13.202 117.422 13.626 117.278 13.93C117.134 14.234 116.878 14.482 116.51 14.674C116.126 14.834 115.662 14.93 115.118 14.962C114.574 14.978 113.942 14.986 113.222 14.986C113.174 14.682 113.078 14.338 112.934 13.954C112.79 13.57 112.646 13.234 112.502 12.946C112.918 12.962 113.318 12.97 113.702 12.97C114.102 12.97 114.374 12.97 114.518 12.97C114.646 12.97 114.734 12.946 114.782 12.898C114.846 12.834 114.878 12.746 114.878 12.634V4.69001ZM118.766 4.69001H127.046V6.92201H118.766V4.69001ZM125.702 4.69001H128.39V12.586C128.39 13.178 128.31 13.634 128.15 13.954C128.006 14.258 127.726 14.506 127.31 14.698C126.91 14.874 126.414 14.986 125.822 15.034C125.246 15.066 124.566 15.074 123.782 15.058C123.734 14.722 123.63 14.354 123.47 13.954C123.326 13.538 123.174 13.178 123.014 12.874C123.478 12.89 123.934 12.906 124.382 12.922C124.846 12.922 125.15 12.922 125.294 12.922C125.438 12.906 125.542 12.874 125.606 12.826C125.67 12.778 125.702 12.69 125.702 12.562V4.69001ZM118.07 11.77C118.934 11.514 119.95 11.194 121.118 10.81C122.286 10.41 123.47 10.002 124.67 9.58601L125.126 11.65C124.086 12.05 123.03 12.45 121.958 12.85C120.902 13.234 119.926 13.586 119.03 13.906L118.07 11.77ZM119.174 8.33801L120.566 6.63401C121.094 6.89001 121.67 7.21001 122.294 7.59401C122.934 7.96201 123.43 8.30601 123.782 8.62601L122.318 10.498C121.998 10.162 121.526 9.79401 120.902 9.39401C120.294 8.97801 119.718 8.62601 119.174 8.33801ZM107.15 12.178C107.95 11.938 108.902 11.634 110.006 11.266C111.126 10.882 112.262 10.482 113.414 10.066L113.846 12.154C112.87 12.554 111.886 12.97 110.894 13.402C109.918 13.818 109.006 14.194 108.158 14.53L107.15 12.178ZM108.422 8.36201L109.79 6.70601C110.318 6.96201 110.886 7.28201 111.494 7.66601C112.102 8.03401 112.574 8.37801 112.91 8.69801L111.47 10.546C111.15 10.21 110.694 9.83401 110.102 9.41801C109.51 9.00201 108.95 8.65001 108.422 8.36201ZM142.3 24.346C141.372 24.346 140.54 24.234 139.804 24.01C139.068 23.802 138.412 23.514 137.836 23.146C137.276 22.762 136.788 22.338 136.372 21.874L138.028 19.642C138.572 20.138 139.164 20.57 139.804 20.938C140.46 21.29 141.188 21.466 141.988 21.466C142.596 21.466 143.124 21.37 143.572 21.178C144.036 20.986 144.388 20.706 144.628 20.338C144.884 19.97 145.012 19.522 145.012 18.994C145.012 18.402 144.868 17.898 144.58 17.482C144.308 17.05 143.82 16.722 143.116 16.498C142.412 16.274 141.42 16.162 140.14 16.162V13.618C141.228 13.618 142.084 13.506 142.708 13.282C143.332 13.042 143.772 12.722 144.028 12.322C144.3 11.906 144.436 11.434 144.436 10.906C144.436 10.218 144.228 9.68201 143.812 9.29801C143.396 8.89801 142.812 8.69801 142.06 8.69801C141.436 8.69801 140.852 8.84201 140.308 9.13001C139.78 9.40201 139.252 9.77801 138.724 10.258L136.9 8.07401C137.684 7.41801 138.508 6.89801 139.372 6.51401C140.236 6.11401 141.188 5.91401 142.228 5.91401C143.364 5.91401 144.364 6.09801 145.228 6.46601C146.108 6.83401 146.788 7.37001 147.268 8.07401C147.748 8.77801 147.988 9.63401 147.988 10.642C147.988 11.602 147.732 12.426 147.22 13.114C146.708 13.802 145.98 14.33 145.036 14.698V14.818C145.692 14.994 146.284 15.282 146.812 15.682C147.356 16.066 147.78 16.554 148.084 17.146C148.404 17.738 148.564 18.426 148.564 19.21C148.564 20.282 148.276 21.202 147.7 21.97C147.14 22.738 146.38 23.33 145.42 23.746C144.476 24.146 143.436 24.346 142.3 24.346ZM157.488 24.346C156.656 24.346 155.848 24.17 155.064 23.818C154.296 23.466 153.616 22.93 153.024 22.21C152.432 21.474 151.96 20.546 151.608 19.426C151.272 18.29 151.104 16.938 151.104 15.37C151.104 13.722 151.288 12.298 151.656 11.098C152.04 9.89801 152.552 8.92201 153.192 8.17001C153.832 7.40201 154.56 6.83401 155.376 6.46601C156.208 6.09801 157.08 5.91401 157.992 5.91401C159.08 5.91401 160.016 6.11401 160.8 6.51401C161.6 6.89801 162.264 7.37001 162.792 7.93001L160.92 10.042C160.616 9.69001 160.216 9.38601 159.72 9.13001C159.224 8.87401 158.72 8.74601 158.208 8.74601C157.488 8.74601 156.832 8.95401 156.24 9.37001C155.664 9.78601 155.2 10.474 154.848 11.434C154.496 12.394 154.32 13.706 154.32 15.37C154.32 16.906 154.456 18.138 154.728 19.066C155.016 19.978 155.392 20.642 155.856 21.058C156.32 21.474 156.84 21.682 157.416 21.682C157.864 21.682 158.264 21.562 158.616 21.322C158.984 21.066 159.28 20.698 159.504 20.218C159.728 19.722 159.84 19.114 159.84 18.394C159.84 17.69 159.728 17.114 159.504 16.666C159.296 16.218 159 15.882 158.616 15.658C158.248 15.434 157.808 15.322 157.296 15.322C156.816 15.322 156.312 15.474 155.784 15.778C155.256 16.066 154.768 16.578 154.32 17.314L154.152 14.938C154.472 14.49 154.848 14.106 155.28 13.786C155.728 13.466 156.184 13.226 156.648 13.066C157.128 12.906 157.56 12.826 157.944 12.826C158.936 12.826 159.816 13.026 160.584 13.426C161.368 13.826 161.976 14.434 162.408 15.25C162.84 16.066 163.056 17.114 163.056 18.394C163.056 19.61 162.8 20.666 162.288 21.562C161.792 22.442 161.12 23.13 160.272 23.626C159.424 24.106 158.496 24.346 157.488 24.346ZM171.14 24.346C169.94 24.346 168.884 24.002 167.972 23.314C167.076 22.61 166.372 21.57 165.86 20.194C165.364 18.802 165.116 17.082 165.116 15.034C165.116 13.002 165.364 11.314 165.86 9.97001C166.372 8.61001 167.076 7.59401 167.972 6.92201C168.884 6.25001 169.94 5.91401 171.14 5.91401C172.356 5.91401 173.412 6.25801 174.308 6.94601C175.204 7.61801 175.9 8.62601 176.396 9.97001C176.908 11.314 177.164 13.002 177.164 15.034C177.164 17.082 176.908 18.802 176.396 20.194C175.9 21.57 175.204 22.61 174.308 23.314C173.412 24.002 172.356 24.346 171.14 24.346ZM171.14 21.586C171.668 21.586 172.132 21.386 172.532 20.986C172.932 20.586 173.244 19.914 173.468 18.97C173.692 18.01 173.804 16.698 173.804 15.034C173.804 13.386 173.692 12.098 173.468 11.17C173.244 10.226 172.932 9.57001 172.532 9.20201C172.132 8.81801 171.668 8.62601 171.14 8.62601C170.644 8.62601 170.188 8.81801 169.772 9.20201C169.372 9.57001 169.052 10.226 168.812 11.17C168.572 12.098 168.452 13.386 168.452 15.034C168.452 16.698 168.572 18.01 168.812 18.97C169.052 19.914 169.372 20.586 169.772 20.986C170.188 21.386 170.644 21.586 171.14 21.586Z" fill="white"/>
</g>
<defs>
<clipPath id="clip0_12619_113">
<rect width="178" height="26" fill="white"/>
</clipPath>
</defs>
</svg>
