<svg width="36" height="36" viewBox="0 0 36 36" fill="none" xmlns="http://www.w3.org/2000/svg">
<rect x="1" y="1.00024" width="34" height="34" rx="17" fill="white"/>
<rect x="1" y="1.00024" width="34" height="34" rx="17" stroke="#454F5B" stroke-width="2"/>
<path d="M25.5904 13.7205L24.1326 15.3715C23.9921 15.5472 23.7286 15.5472 23.553 15.4067L19.5835 11.8763C19.4079 11.7358 19.4079 11.4723 19.5484 11.2967L21.0062 9.64567C21.6034 8.97824 22.6221 8.90798 23.2895 9.50516L25.4323 11.4196C26.0998 12.0168 26.17 13.0355 25.5728 13.703L25.5904 13.7205Z" fill="#454F5B"/>
<path d="M9.45969 12.0186L25.1469 25.9366C25.4154 26.1748 25.8262 26.1503 26.0644 25.8818L26.5423 25.3431C26.7805 25.0746 26.7559 24.6639 26.4874 24.4257L10.8002 10.5077C10.5317 10.2695 10.121 10.2941 9.88278 10.5625L9.40486 11.1012C9.16666 11.3697 9.19121 11.7804 9.45969 12.0186Z" fill="#454F5B"/>
<path d="M20.6719 19.2706L22.8849 16.7765C23.0254 16.6009 23.0254 16.355 22.8498 16.1969L18.8803 12.6665C18.7047 12.526 18.4588 12.526 18.3007 12.7017L16.0876 15.1958L20.6719 19.253V19.2706Z" fill="#454F5B"/>
<path d="M13.9102 17.7601L9.95828 22.116L9.48405 26.2611C9.41379 26.8231 9.92315 27.2798 10.4852 27.1393L14.5425 26.1733L18.4944 21.8174C18.5822 21.712 18.5822 21.5539 18.4768 21.4661L14.279 17.7425C14.1736 17.6547 14.0156 17.6547 13.9277 17.7601H13.9102ZM11.8728 25.699L10.7662 24.7154L11.0121 22.5199L12.2416 22.4497L12.3294 24.0656L13.9453 23.9602L14.0156 25.1897L11.8552 25.699H11.8728Z" fill="#454F5B"/>
</svg>
