<svg width="24" height="24" viewBox="0 0 24 24" fill="none" xmlns="http://www.w3.org/2000/svg">
<path d="M19.5904 7.7204L18.1326 9.37141C17.9921 9.54705 17.7286 9.54705 17.553 9.40654L13.5835 5.87618C13.4079 5.73567 13.4079 5.47221 13.5484 5.29657L15.0062 3.64555C15.6034 2.97812 16.6221 2.90786 17.2895 3.50504L19.4323 5.41951C20.0998 6.01669 20.17 7.0354 19.5728 7.70283L19.5904 7.7204Z" fill="#454F5B"/>
<path d="M3.45969 6.01863L19.1469 19.9366C19.4154 20.1748 19.8262 20.1503 20.0644 19.8818L20.5423 19.3431C20.7805 19.0746 20.7559 18.6639 20.4874 18.4257L4.8002 4.50771C4.53172 4.26951 4.12098 4.29406 3.88278 4.56254L3.40486 5.10121C3.16666 5.36969 3.19121 5.78043 3.45969 6.01863Z" fill="#454F5B"/>
<path d="M14.6719 13.2705L16.8849 10.7765C17.0254 10.6008 17.0254 10.3549 16.8498 10.1968L12.8803 6.66648C12.7047 6.52597 12.4588 6.52597 12.3007 6.70161L10.0876 9.1957L14.6719 13.253V13.2705Z" fill="#454F5B"/>
<path d="M7.91018 11.7601L3.95828 16.116L3.48405 20.2611C3.41379 20.8231 3.92315 21.2798 4.4852 21.1393L8.54248 20.1733L12.4944 15.8174C12.5822 15.712 12.5822 15.5539 12.4768 15.4661L8.27902 11.7425C8.17364 11.6547 8.01556 11.6547 7.92774 11.7601H7.91018ZM5.87275 19.699L4.76622 18.7154L5.01212 16.5199L6.2416 16.4497L6.32942 18.0656L7.9453 17.9602L8.01556 19.1897L5.85519 19.699H5.87275Z" fill="#454F5B"/>
</svg>
