<svg width="24" height="24" viewBox="0 0 24 24" fill="none" xmlns="http://www.w3.org/2000/svg">
<path d="M10.4865 11.4865H8.86486C8.56622 11.4865 8.32432 11.7284 8.32432 12.027V18.5135C8.32432 18.8122 8.56622 19.0541 8.86486 19.0541H10.4865C10.7851 19.0541 11.027 18.8122 11.027 18.5135V12.027C11.027 11.7284 10.7851 11.4865 10.4865 11.4865ZM6.16216 14.7297H4.54054C4.24189 14.7297 4 14.9716 4 15.2703V18.5135C4 18.8122 4.24189 19.0541 4.54054 19.0541H6.16216C6.46081 19.0541 6.7027 18.8122 6.7027 18.5135V15.2703C6.7027 14.9716 6.46081 14.7297 6.16216 14.7297ZM14.8108 8.24324H13.1892C12.8905 8.24324 12.6486 8.48513 12.6486 8.78378V18.5135C12.6486 18.8122 12.8905 19.0541 13.1892 19.0541H14.8108C15.1095 19.0541 15.3514 18.8122 15.3514 18.5135V8.78378C15.3514 8.48513 15.1095 8.24324 14.8108 8.24324ZM19.1351 5H17.5135C17.2149 5 16.973 5.24189 16.973 5.54054V18.5135C16.973 18.8122 17.2149 19.0541 17.5135 19.0541H19.1351C19.4338 19.0541 19.6757 18.8122 19.6757 18.5135V5.54054C19.6757 5.24189 19.4338 5 19.1351 5Z" fill="#FFB73D"/>
</svg>
