<svg width="36" height="36" viewBox="0 0 36 36" fill="none" xmlns="http://www.w3.org/2000/svg">
<rect x="1" y="1" width="34" height="34" rx="17" fill="white"/>
<rect x="1" y="1" width="34" height="34" rx="17" stroke="#FFB73D" stroke-width="2"/>
<path d="M16.4865 17.4865H14.8649C14.5662 17.4865 14.3243 17.7283 14.3243 18.027V24.5135C14.3243 24.8121 14.5662 25.054 14.8649 25.054H16.4865C16.7851 25.054 17.027 24.8121 17.027 24.5135V18.027C17.027 17.7283 16.7851 17.4865 16.4865 17.4865ZM12.1622 20.7297H10.5405C10.2419 20.7297 10 20.9716 10 21.2702V24.5135C10 24.8121 10.2419 25.054 10.5405 25.054H12.1622C12.4608 25.054 12.7027 24.8121 12.7027 24.5135V21.2702C12.7027 20.9716 12.4608 20.7297 12.1622 20.7297Z" fill="#FFB73D"/>
<path d="M19.189 14.2433H20.8106C21.1092 14.2433 21.3511 14.4852 21.3511 14.7838V24.5136C21.3511 24.8122 21.1092 25.0541 20.8106 25.0541H19.189C18.8903 25.0541 18.6484 24.8122 18.6484 24.5136V14.7838C18.6484 14.4852 18.8903 14.2433 19.189 14.2433Z" fill="#FFB73D"/>
<path d="M23.5132 11H25.1348C25.4335 11 25.6754 11.2419 25.6754 11.5405V24.5135C25.6754 24.8122 25.4335 25.0541 25.1348 25.0541H23.5132C23.2145 25.0541 22.9727 24.8122 22.9727 24.5135V11.5405C22.9727 11.2419 23.2145 11 23.5132 11Z" fill="#E9E9E9"/>
</svg>
