<svg width="18" height="13" viewBox="0 0 18 13" fill="none" xmlns="http://www.w3.org/2000/svg">
<path d="M11.6075 8.98689V0.7547C11.6075 0.428843 11.3462 0.166687 11.0214 0.166687H3.0111C1.71676 0.166687 0.666626 1.22021 0.666626 2.51874V10.3589C0.666626 11.6574 1.71676 12.711 3.0111 12.711H11.0214C11.3462 12.711 11.6075 12.4488 11.6075 12.123V11.731C11.6075 11.5472 11.522 11.3806 11.3902 11.2728C11.2876 10.8955 11.2876 9.81991 11.3902 9.4426C11.522 9.33725 11.6075 9.17064 11.6075 8.98689ZM9.98103 11.1429H3.0111C2.57884 11.1429 2.22961 10.7926 2.22961 10.3589C2.22961 9.92771 2.58128 9.5749 3.0111 9.5749H9.98103C9.93463 9.99386 9.93463 10.724 9.98103 11.1429Z" fill="#00A15D"/>
<path d="M13.849 11.7868L13.849 10.5319C13.849 10.4039 13.9525 10.3005 14.0804 10.3005L17.102 10.3005C17.23 10.3005 17.3334 10.4039 17.3334 10.5319L17.3334 11.7868C17.3334 12.2958 16.9196 12.7096 16.4092 12.711L14.7732 12.711C14.2628 12.7123 13.849 12.2986 13.849 11.7868ZM17.3334 9.45389L17.3334 2.30546L15.9682 0.363194C15.7845 0.100505 15.3966 0.101866 15.2115 0.363194L13.8477 2.30683L13.8477 9.45525C13.8477 9.58319 13.9511 9.68664 14.079 9.68664L17.1007 9.68664C17.23 9.68528 17.3334 9.58183 17.3334 9.45389ZM15.5912 2.3708L14.9379 3.02412L14.4438 2.53004L15.1679 1.49834L16.0145 1.49834L16.7386 2.53004L16.2445 3.02412L15.5912 2.3708Z" fill="#00A15D"/>
</svg>
