<svg width="36" height="36" viewBox="0 0 36 36" fill="none" xmlns="http://www.w3.org/2000/svg">
<rect x="1" y="1.00024" width="34" height="34" rx="17" fill="white"/>
<rect x="1" y="1.00024" width="34" height="34" rx="17" stroke="#FFB73D" stroke-width="2"/>
<path d="M16.4865 17.4868H14.8649C14.5662 17.4868 14.3243 17.7287 14.3243 18.0274V24.5138C14.3243 24.8125 14.5662 25.0544 14.8649 25.0544H16.4865C16.7851 25.0544 17.027 24.8125 17.027 24.5138V18.0274C17.027 17.7287 16.7851 17.4868 16.4865 17.4868ZM12.1622 20.7301H10.5405C10.2419 20.7301 10 20.972 10 21.2706V24.5138C10 24.8125 10.2419 25.0544 10.5405 25.0544H12.1622C12.4608 25.0544 12.7027 24.8125 12.7027 24.5138V21.2706C12.7027 20.972 12.4608 20.7301 12.1622 20.7301Z" fill="#FFB73D"/>
<path d="M19.189 14.2434H20.8106C21.1092 14.2434 21.3511 14.4853 21.3511 14.7839V24.5137C21.3511 24.8123 21.1092 25.0542 20.8106 25.0542H19.189C18.8903 25.0542 18.6484 24.8123 18.6484 24.5137V14.7839C18.6484 14.4853 18.8903 14.2434 19.189 14.2434Z" fill="#E9E9E9"/>
<path d="M23.5132 11.0002H25.1348C25.4335 11.0002 25.6754 11.2421 25.6754 11.5408V24.5138C25.6754 24.8124 25.4335 25.0543 25.1348 25.0543H23.5132C23.2145 25.0543 22.9727 24.8124 22.9727 24.5138V11.5408C22.9727 11.2421 23.2145 11.0002 23.5132 11.0002Z" fill="#E9E9E9"/>
</svg>
